<?xml version="1.0" encoding="utf-8"?>
<!-- Generator: Adobe Illustrator 26.0.2, SVG Export Plug-In . SVG Version: 6.00 Build 0)  -->
<svg version="1.2" baseProfile="tiny" id="Шар_1"
	 xmlns="http://www.w3.org/2000/svg" xmlns:xlink="http://www.w3.org/1999/xlink" x="0px" y="0px" viewBox="0 0 1496 936"
	 overflow="visible" xml:space="preserve">
<path fill="#f0e9e2" d="M-78.3,842c-141.2-7-189.8-51.1-165.3-101.4c31.5-26.6,104.2-22.5,224.2-8c120,14.4,305.5,51.1,301.7,70
	C278.5,821.5,41.7,856.4-78.3,842z M1746.7,333c-290.4-144.8-809.1,97.3-1032.2,236.5c-19.1-73.6,580.7-432,883-602h149.2V333z"/>
<path fill="#FFE4CB" d="M157.7,819.5c-322.3,0-970.2-315-626.6-838s728-165,985.7-184S1649.2-109,1649.2-109
	c23.2,63.7-78.9,267-514.9,432C597.8,526.1,683.5,819.5,157.7,819.5z"/>
<path fill="#FFEEDD" d="M994.8,193.5c242-68.3,421.1-158.3,470.9-242.5L531-91.5C501.3,151,548.5,319.5,994.8,193.5z"/>
<path fill="none" stroke="#FFE4CB" stroke-width="17" d="M1692.4-95.5c2.6,73.3-28.5,275.2-388.2,403
	c-549,195-534.2,462.6-936.6,575c-331.4,92.6-615.1,14-664-6"/>
</svg>
