<svg width="375" height="576" xmlns="http://www.w3.org/2000/svg" fill="none">

 <g>
  <title>Layer 1</title>
  <path id="svg_1" fill="#f0e9e2" d="m-27.515,531.283c-54.943,-3.528 -73.877,-25.698 -64.325,-50.963c12.262,-13.374 40.54,-11.307 87.253,-4.047c46.714,7.259 118.88,25.71 117.405,35.205c-1.476,9.495 -93.62,27.065 -140.333,19.805z"/>
  <path id="svg_2" fill="#FFE4CB" d="m61.476,517.126c-125.453,0 -377.586,-158.375 -243.847,-421.327c133.739,-262.953 285.067,-103.746 385.371,-113.299c100.304,-9.553 438.964,67.797 438.964,67.797c9.008,32.05 -30.701,134.242 -200.388,217.2c-208.831,102.095 -175.47,249.629 -380.1,249.629z"/>
  <path id="svg_3" fill="#FED" d="m317.992,136.971c80.157,-29.232 143.531,-117.95 160.008,-153.971l-313.5,0c-9.843,103.783 5.629,207.896 153.492,153.971z"/>
  <path id="svg_4" stroke-width="8.547" stroke="#FFE4CB" d="m657.776,44.085c1.005,36.87 -11.087,138.385 -151.085,202.619c-213.68,98.042 -207.899,232.587 -364.514,289.097c-128.962,46.533 -239.406,7.039 -258.427,-3.016"/>
 </g>
</svg>