<svg width="375" height="902" xmlns="http://www.w3.org/2000/svg" fill="none">
 <g>
  <title>Layer 1</title>
  <path d="m427.253,42.962c-47.152,44.593 -125.156,30.582 -162.474,4.58c22.31,52.165 113.031,67.586 148.463,64.936l14.011,-69.516z" fill="#f0e9e2" id="svg_1"/>
  <path d="m154.054,27.57c-101.04,16.3 -167.768,82.233 -168.94,88.915c-22.94,76.244 -52.222,707.956 -10.114,702.696c47.564,-5.942 171.869,-24.376 231.056,33.5c103.331,101.04 205.719,14.819 205.719,14.819l4.132,-728.112l0,-65.951c-24.3,15.123 -74.756,26.877 -119.315,-7.737c-54.027,-41.97 -103.965,-44.354 -142.538,-38.13z" fill="#FFE4CB" id="svg_2"/>
  <path d="m-9.917,88.632c58.334,-63.857 164.807,-101.13 258.665,-77.464c94.035,23.71 119.901,84.74 199.252,4.446" stroke="#FFE4CB" stroke-width="8" id="svg_3"/>
  <path d="m324.901,143.545c236.534,113.255 447.955,29.65 524.099,-26.31l0,268.523c-252.236,255.994 -563.354,108.578 -678.614,-17.122c-126.188,-137.618 -141.152,-366.66 154.515,-225.091z" fill="#FED" id="svg_4"/>
 </g>

</svg>