<?xml version="1.0" encoding="utf-8"?>
<!-- Generator: Adobe Illustrator 26.0.2, SVG Export Plug-In . SVG Version: 6.00 Build 0)  -->
<svg version="1.2" baseProfile="tiny" id="Шар_1"
	 xmlns="http://www.w3.org/2000/svg" xmlns:xlink="http://www.w3.org/1999/xlink" x="0px" y="0px" viewBox="0 0 1708.5 1033.8"
	 overflow="visible" xml:space="preserve">
<path fill="#f0e9e2" d="M2013,186.7c-262.7,162-692.8,104.2-897.6,5c120.6,195.2,620.9,259.2,816.8,252L2013,186.7z"/>
<path fill="#FFE4CB" d="M1288.9,260.3C978.4,104.5,691.3,95.7,469.6,118.8c-580.8,60.5-964.4,305.2-971.1,330
	c-74.3,159.4-65.3,234.5,0.1,266.1c0.3,0.5,0.6,1,1,1.5c4,5.5,7.9,10.9,11.9,16.4c0.9,1.2,1.9,2.3,3,3.4c0.5,0.7,1.1,1.5,1.7,2.2
	c0.6,0.7,1.3,1.5,1.9,2.2c3.9,6.1,7.4,12.4,10.5,18.8c2.2,4.5,6.7,7.4,11.9,8.7c0.7,1,1.4,2,2.1,3c1.4,2.1,3.3,3.9,5.5,5.4
	c0.4,1.5,0.9,3.1,1.6,4.5c4.6,9.9,14.9,15.2,25.5,15.9c1.7,0.3,3.4,0.5,5.1,0.4c0,0,0.1,0.1,0.1,0.1c4.8,3,10.5,4.8,16.3,5.4
	c3.7,2.5,8.2,4.1,12.8,3.8c2.4-0.2,4.7-0.5,6.9-1c6.5,2.6,14.3,2.9,20.3-0.8c0.5-0.3,1-0.6,1.5-1c2.1,1.2,4.4,2.1,6.9,2.6
	c0.9,0.6,1.8,1.3,2.7,1.9c3.5,1.8,7.2,2.7,11.2,2.7h1.3c2.3,0.1,4.4-0.2,6.4-0.9c1.7-0.2,3.4-0.3,5.1-0.5c1.5,0,2.9-0.1,4.2-0.3
	c5.9-0.4,11.8-0.8,17.7-1.1c4.4,1.7,9.6,2.2,15,1.4c10.7-1.6,21.5-3.1,32.2-4.7c8.2-1.2,14.4-8.4,15.9-15.9c0.4,0,0.9,0,1.3,0
	c4.3,0,8.6-1.3,12.2-3.4c0.2-0.1,0.4-0.1,0.6-0.2c0.9,0.1,1.8,0.2,2.7,0.2c7.2,0,14.2-3.5,18.4-8.8c2.8-0.7,5.5-1.9,7.9-3.5
	c3.1-0.7,6.2-1.4,9.3-2.2c3.3,0.6,6.9,0.7,10.6,0.1c14.1-2.1,28.1-4,42.2-5.9c7-0.9,14.1-1.8,21.1-2.7c0.2,0,0.3,0,0.5-0.1
	c1.8-0.2,3.5-0.4,5.3-0.6c3.9-0.5,7.8-0.9,11.7-1.3c28.3-3.2,56.6-5.9,85-8.2c56.1-4.5,112.3-7.2,168.6-8.2
	c113.6-1.9,227.4,3.5,340.1,16c3.9,0.4,7.8,0.9,11.7,1.3c1.4,0.2,2.8,0.3,4.2,0.5c1.4,0.2,2.8,0.3,4.2,0.5c0.3,0,0.6,0.1,0.8,0.1
	c1,0.1,4.1,0.5,3.9,0.5c2.1,0.3,4.2,0.5,6.4,0.8c4.2,0.5,8.5,1.1,12.7,1.6c15.5,2,31,4.2,46.5,6.5c21.5,3.2,42.9,6.7,64.2,10.4
	c32.3,7.3,64.1,15.1,95.7,22.7c100.7,24.2,202.7,45.5,305.4,65.7c51,10.1,102.4,19.5,154.3,27.4c25.5,3.9,51.3,6.8,77.1,9.5
	c12.3,1.3,24.7,2.5,37,3.6c3.8,0.4,7.7,0.7,11.5,1c0.3,0,0.5,0,0.8,0.1c6.3,0.5,12.6,1.1,18.9,1.6c9.8,0.8,19.6,1.6,29.4,2.5
	c0.6,0.1,2.6,0.2,4.3,0.4c1.8,0.1,5.3,0.4,6.1,0.5c13.8,1.1,27.7,2.2,41.5,3c27,1.7,54.1,3,81.2,3.6c53.3,1.3,105.8-0.9,159-3
	c24.2-1,48.4-1.9,72.5-3.6c1.1-0.1,2.1-0.2,3.2-0.3c2.7-0.3,5.4-0.6,8.2-0.9c5.8-0.7,11.7-1.5,17.4-2.4c12-1.9,23.5-4.6,35.3-7
	c25.2-5.2,50.8-9.4,76.5-13.5c22.8-3.7,46.5-6.7,68.5-12l22.1-347.7V289C1835.1,345.1,1545.1,388.7,1288.9,260.3z M-391.6,802.2
	c0.1,0,0.1,0,0.2,0c1.4,0.8,2.9,1.4,4.5,1.8c0.1,0,0.1,0.1,0.2,0.1C-388.3,803.8-390,803.2-391.6,802.2z"/>
<path fill="none" stroke="#FFE4CB" stroke-width="17" d="M-460.6,332.1C-142.1,102,432.7-23.6,934.8,75.4
	c503,99.2,636.9,328.7,1069.6,40.2"/>
<path fill="#FFEEDD" d="M1081.8,347.1c369.7,176.8,736.8,115.8,874.2,63.2l-53.3,318.2c-469,257.9-955.6,27.2-1121.7-142.5
	C599.1,400.2,619.7,126.1,1081.8,347.1z"/>
<path fill="#FFE4CB" d="M511.4,286.8c-0.5-10.8-8.8-20-20-20c-10.5,0-20.5,9.2-20,20c0.5,10.8,8.8,20,20,20
	C501.9,306.8,511.9,297.6,511.4,286.8z"/>
</svg>
