<?xml version="1.0" encoding="utf-8"?>
<!-- Generator: Adobe Illustrator 26.0.2, SVG Export Plug-In . SVG Version: 6.00 Build 0)  -->
<svg version="1.2" baseProfile="tiny" id="Camada_1"
	 xmlns="http://www.w3.org/2000/svg" xmlns:xlink="http://www.w3.org/1999/xlink" x="0px" y="0px" viewBox="0 0 131 228.9"
	 overflow="visible" xml:space="preserve">
<path fill="#FFE4CB" d="M62.4,11.8c1.4,1.4,2.7,2,4.1,3.4C73.3,22,76,31.5,80.8,39.7c2,3.4-0.7,4.8-3.4,4.1c-6.1-1.4-11.6-1.4-17,0
	c-2.7,0.7-5.4-0.7-4.8-3.4c0.7-8.2,2-16.3,3.4-23.8C57.7,13.8,59,11.8,62.4,11.8z"/>
<path fill="#FFE4CB" d="M122.3,182.5c0.7-2.7,2-5.4,2.7-8.2c8.8-34-2-51.7-2-51.7l0,0c0-0.7-0.7-1.4-0.7-1.4
	c-4.1-7.5-7.5-16.3-10.9-24.5C106,83.9,99.2,71.6,89,62.8c-16.3-15-34-17.7-46.9,4.8c-2.7,4.1-4.8,8.2-7.5,12.2
	c-11.6,19-17.7,40.1-27.9,59.8c-15,27.9,4.8,79.6,34.7,87c21.1,4.8,39.4,2,55.8-10.9c6.1-4.8,12.2-10.2,16.3-16.3
	C116.2,196.1,119.6,190.6,122.3,182.5z"/>
</svg>
