<?xml version="1.0" encoding="utf-8"?>
<!-- Generator: Adobe Illustrator 26.0.2, SVG Export Plug-In . SVG Version: 6.00 Build 0)  -->
<svg version="1.2" baseProfile="tiny" id="Camada_1"
	 xmlns="http://www.w3.org/2000/svg" xmlns:xlink="http://www.w3.org/1999/xlink" x="0px" y="0px" viewBox="0 0 325.2 257"
	 overflow="visible" xml:space="preserve">
<path fill="#FFE4CB" d="M313.2,143.4c-3.4-4.1-15.6-21.1-16.3-21.8c-6.1-6.1-11.6-9.5-16.3-10.9c-6.8-2.7-12.9-6.1-18.4-10.9
	c-3.4-4.1-7.5-7.5-10.2-12.2c-9.5-14.3-18.4-29.2-27.2-43.5C218.6,34,211.8,25.8,202.3,19C184,7.4,164.2,2,143.2,8.8
	c-19,6.1-35.4,17.7-47.6,34C82,60.5,67,77.5,52,93.8c-12.2,12.9-26.5,23.8-37.4,38.8C0.4,152.3-1.7,173.4,1,195.8
	c1.4,15,7.5,27.9,18.4,38.1c10.2,9.5,23.8,15,36.7,19.7c4.8,1.4,10.2,3.4,15,3.4l0,0h0.7c0.7,0,17-0.7,26.5-3.4
	c4.8-0.7,9.5-2,13.6-4.8l0,0l0,0c12.2-8.8,25.2-10.9,39.4-12.9c21.1-2.7,40.8,0,59.8,6.1c27.2,8.2,53,12.9,79.6-1.4
	c16.3-8.8,28.6-20.4,32-38.1C327.4,182.2,326.1,161.1,313.2,143.4z"/>
</svg>
