<?xml version="1.0" encoding="utf-8"?>
<!-- Generator: Adobe Illustrator 26.0.2, SVG Export Plug-In . SVG Version: 6.00 Build 0)  -->
<svg version="1.1" id="Camada_1" xmlns="http://www.w3.org/2000/svg" xmlns:xlink="http://www.w3.org/1999/xlink" x="0px" y="0px"
	 viewBox="0 0 123 257" style="enable-background:new 0 0 123 257;" xml:space="preserve">
<style type="text/css">
	.st0{fill:#FFE4CB;}
	.st1{fill:#E3B293;}
</style>
<path class="st0" d="M261.7-229.3c4.8,4.8,2.7,10.9,2,16.3c-0.7,4.8,0.7,10.2-2,13.6c-2.7,4.1-8.2-0.7-12.9-0.7
	c-12.2,0-11.6,0-6.1-10.9c3.4-7.5,10.2-11.6,14.3-18.4C258.3-229.3,259.7-229.3,261.7-229.3z"/>
<path class="st0" d="M293-66.6c0-18.4,4.1-34.7,6.1-51.7c0.7-10.9,0.7-22.4,0.7-33.3c0-8.2,2-15.6,4.8-23.1
	c7.5-17,25.2-18.4,41.5-10.2c14.3,7.5,23.1,20.4,29.9,34.7c8.8,17.7,20.4,35.4,21.8,55.1c2,29.2-2.7,57.8-29.9,75.5
	c-14.3,9.5-32,12.9-49,4.8c-7.5-3.4-10.9-10.9-15-17C296.4-42.8,293-55.1,293-66.6z"/>
<path class="st1" d="M36.7,60.6c1.4-9.5,0.7-21.8,9.5-30.6c2.7-2,4.8-6.1,8.2-4.8c4.1,1.4,2.7,4.8,3.4,8.2c1.4,8.8,3.4,17,8.2,24.5
	c1.4,2,2,4.1,0.7,6.1c-1.4,2-3.4,0-4.8-0.7c-7.5-1.4-15-4.1-21.1,4.1c-0.7,1.4-2.7,1.4-3.4,0C36,66,36.7,64,36.7,60.6z"/>
<path class="st0" d="M331.1-196.6c-6.8,1.4-9.5-1.4-9.5-8.2c0-5.4-1.4-10.9-0.7-16.3c1.4-6.8,4.1-8.2,9.5-3.4
	c4.1,3.4,6.1,7.5,8.8,12.2c2.7,4.1,4.8,8.8,7.5,12.9c0.7,1.4,2,2.7,0.7,4.1c-1.4,1.4-2.7,1.4-4.1,0.7
	C339.2-195.3,335.2-197.3,331.1-196.6z"/>
<path class="st0" d="M434.4-100.1c1.4,1.4,2.7,2,4.1,3.4c6.8,6.8,9.5,16.3,14.3,24.5c2,3.4-0.7,4.8-3.4,4.1c-6.1-1.4-11.6-1.4-17,0
	c-2.7,0.7-5.4-0.7-4.8-3.4c0.7-8.2,2-16.3,3.4-23.8C429.7-98,431-100.1,434.4-100.1z"/>
<path class="st0" d="M274.6-122.5c-1.4-16.3-4.8-32-8.8-47.6c-3.4-12.9-10.9-17.7-10.9-17.7c-3.4-3.4-7.5-5.4-12.2-4.1
	c-8.8,2.7-17,7.5-24.5,12.9c-13.6,9.5-23.8,22.4-34,35.4c-6.1,7.5-10.9,17.7-11.6,27.9c-1.4,21.1-0.7,41.5,8.8,61.2
	c6.8,15,19.7,24.5,33.3,32c6.8,4.1,15.6,1.4,23.1,0c15-1.4,31.3-8.8,34.7-30.6c0.7-3.4,0.7-6.1,0.7-9.5
	C277.4-83.1,276.7-102.8,274.6-122.5z"/>
<path class="st1" d="M105.4,125.2c-6.8-12.2-17-23.1-24.5-34.7c-4.1-6.8-9.5-11.6-15-15.6c-6.1-4.8-12.2-4.8-18.4-0.7
	c-5.4,2.7-9.5,7.5-12.9,12.2c-15,23.1-26.5,48.3-29.2,76.8c0,2,0,12.9,0.7,15c0.7,6.1,2.7,11.6,4.8,17c6.8,21.8,21.1,34,44.2,36
	c5.4,1.4,10.9,0.7,17,0c0,0,5.4-0.7,9.5-4.8l0,0c13.6-7.5,20.4-21.1,28.6-33.3c3.4-4.8,5.4-10.2,6.8-15.6
	C117.6,158.5,114.2,141.5,105.4,125.2z"/>
<path class="st0" d="M494.3,70.6c0.7-2.7,2-5.4,2.7-8.2c8.8-34-2-51.7-2-51.7l0,0c0-0.7-0.7-1.4-0.7-1.4
	c-4.1-7.5-7.5-16.3-10.9-24.5C478-28,471.2-40.2,461-49.1c-16.3-15-34-17.7-46.9,4.8c-2.7,4.1-4.8,8.2-7.5,12.2
	C395-13,388.9,8,378.7,27.8c-15,27.9,4.8,79.6,34.7,87c21.1,4.8,39.4,2,55.8-10.9c6.1-4.8,12.2-10.2,16.3-16.3
	C488.2,84.2,491.6,78.8,494.3,70.6z"/>
</svg>
