<?xml version="1.0" encoding="utf-8"?>
<!-- Generator: Adobe Illustrator 26.0.2, SVG Export Plug-In . SVG Version: 6.00 Build 0)  -->
<svg version="1.2" baseProfile="tiny" id="Camada_1"
	 xmlns="http://www.w3.org/2000/svg" xmlns:xlink="http://www.w3.org/1999/xlink" x="0px" y="0px" viewBox="0 0 123 228.9"
	 overflow="visible" xml:space="preserve">
<path fill="#FFE4CB" d="M99,15.6c4.8,4.8,2.7,10.9,2,16.3c-0.7,4.8,0.7,10.2-2,13.6c-2.7,4.1-8.2-0.7-12.9-0.7
	c-12.2,0-11.6,0-6.1-10.9c3.4-7.5,10.2-11.6,14.3-18.4C95.6,15.6,97,15.6,99,15.6z"/>
<path fill="#FFE4CB" d="M293-94.8c0-18.4,4.1-34.7,6.1-51.7c0.7-10.9,0.7-22.4,0.7-33.3c0-8.2,2-15.6,4.8-23.1
	c7.5-17,25.2-18.4,41.5-10.2c14.3,7.5,23.1,20.4,29.9,34.7c8.8,17.7,20.4,35.4,21.8,55.1c2,29.2-2.7,57.8-29.9,75.5
	c-14.3,9.5-32,12.9-49,4.8c-7.5-3.4-10.9-10.9-15-17C296.4-71,293-83.2,293-94.8z"/>
<path fill="#FFE4CB" d="M331.1-224.8c-6.8,1.4-9.5-1.4-9.5-8.2c0-5.4-1.4-10.9-0.7-16.3c1.4-6.8,4.1-8.2,9.5-3.4
	c4.1,3.4,6.1,7.5,8.8,12.2c2.7,4.1,4.8,8.8,7.5,12.9c0.7,1.4,2,2.7,0.7,4.1c-1.4,1.4-2.7,1.4-4.1,0.7
	C339.2-223.4,335.2-225.4,331.1-224.8z"/>
<path fill="#FFE4CB" d="M434.4-128.2c1.4,1.4,2.7,2,4.1,3.4c6.8,6.8,9.5,16.3,14.3,24.5c2,3.4-0.7,4.8-3.4,4.1
	c-6.1-1.4-11.6-1.4-17,0c-2.7,0.7-5.4-0.7-4.8-3.4c0.7-8.2,2-16.3,3.4-23.8C429.7-126.2,431-128.2,434.4-128.2z"/>
<path fill="#FFE4CB" d="M112,122.4c-1.4-16.3-4.8-32-8.8-47.6c-3.4-12.9-10.9-17.7-10.9-17.7c-3.4-3.4-7.5-5.4-12.2-4.1
	c-8.8,2.7-17,7.5-24.5,12.9c-13.6,9.5-23.8,22.4-34,35.4c-6.1,7.5-10.9,17.7-11.6,27.9c-1.4,21.1-0.7,41.5,8.8,61.2
	c6.8,15,19.7,24.5,33.3,32c6.8,4.1,15.6,1.4,23.1,0c15-1.4,31.3-8.8,34.7-30.6c0.7-3.4,0.7-6.1,0.7-9.5
	C114.7,161.8,114,142.1,112,122.4z"/>
<path fill="#FFE4CB" d="M494.3,42.5c0.7-2.7,2-5.4,2.7-8.2c8.8-34-2-51.7-2-51.7l0,0c0-0.7-0.7-1.4-0.7-1.4
	c-4.1-7.5-7.5-16.3-10.9-24.5c-5.4-12.9-12.2-25.2-22.4-34c-16.3-15-34-17.7-46.9,4.8c-2.7,4.1-4.8,8.2-7.5,12.2
	c-11.6,19-17.7,40.1-27.9,59.8c-15,27.9,4.8,79.6,34.7,87c21.1,4.8,39.4,2,55.8-10.9c6.1-4.8,12.2-10.2,16.3-16.3
	C488.2,56.1,491.6,50.6,494.3,42.5z"/>
</svg>
