<?xml version="1.0" encoding="utf-8"?>
<!-- Generator: Adobe Illustrator 26.0.2, SVG Export Plug-In . SVG Version: 6.00 Build 0)  -->
<svg version="1.2" baseProfile="tiny" id="Camada_1"
	 xmlns="http://www.w3.org/2000/svg" xmlns:xlink="http://www.w3.org/1999/xlink" x="0px" y="0px" viewBox="0 0 123 228.9"
	 overflow="visible" xml:space="preserve">
<path fill="#FFE4CB" d="M8.9,166.6c0-18.4,4.1-34.7,6.1-51.7c0.7-10.9,0.7-22.4,0.7-33.3c0-8.2,2-15.6,4.8-23.1
	C28,41.5,45.7,40.2,62,48.3C76.3,55.8,85.1,68.7,91.9,83c8.8,17.7,20.4,35.4,21.8,55.1c2,29.2-2.7,57.8-29.9,75.5
	c-14.3,9.5-32,12.9-49,4.8c-7.5-3.4-10.9-10.9-15-17C12.3,190.4,8.9,178.2,8.9,166.6z"/>
<path fill="#FFE4CB" d="M47,36.6c-6.8,1.4-9.5-1.4-9.5-8.2c0-5.4-1.4-10.9-0.7-16.3c1.4-6.8,4.1-8.2,9.5-3.4
	c4.1,3.4,6.1,7.5,8.8,12.2c2.7,4.1,4.8,8.8,7.5,12.9c0.7,1.4,2,2.7,0.7,4.1c-1.4,1.4-2.7,1.4-4.1,0.7C55.2,38,51.1,36,47,36.6z"/>
<path fill="#FFE4CB" d="M434.4-128.2c1.4,1.4,2.7,2,4.1,3.4c6.8,6.8,9.5,16.3,14.3,24.5c2,3.4-0.7,4.8-3.4,4.1
	c-6.1-1.4-11.6-1.4-17,0c-2.7,0.7-5.4-0.7-4.8-3.4c0.7-8.2,2-16.3,3.4-23.8C429.7-126.2,431-128.2,434.4-128.2z"/>
<path fill="#FFE4CB" d="M494.3,42.5c0.7-2.7,2-5.4,2.7-8.2c8.8-34-2-51.7-2-51.7l0,0c0-0.7-0.7-1.4-0.7-1.4
	c-4.1-7.5-7.5-16.3-10.9-24.5c-5.4-12.9-12.2-25.2-22.4-34c-16.3-15-34-17.7-46.9,4.8c-2.7,4.1-4.8,8.2-7.5,12.2
	c-11.6,19-17.7,40.1-27.9,59.8c-15,27.9,4.8,79.6,34.7,87c21.1,4.8,39.4,2,55.8-10.9c6.1-4.8,12.2-10.2,16.3-16.3
	C488.2,56.1,491.6,50.6,494.3,42.5z"/>
</svg>
